<svg width="182" height="37" viewBox="0 0 182 37" fill="none" xmlns="http://www.w3.org/2000/svg">
<path d="M7.76758 22.8164C7.43945 22.8164 7.07031 22.9629 6.66016 23.2559C6.26172 23.5488 5.85742 23.9297 5.44727 24.3984C5.03711 24.8555 4.63867 25.3711 4.25195 25.9453C3.87695 26.5195 3.54883 27.0879 3.26758 27.6504C3.23242 28.6816 3.19727 29.8066 3.16211 31.0254C3.13867 32.2441 3.12695 33.5449 3.12695 34.9277C3.12695 35.1035 3.04492 35.2617 2.88086 35.4023C2.72852 35.5312 2.54688 35.6426 2.33594 35.7363C2.125 35.8184 1.9082 35.8828 1.68555 35.9297C1.46289 35.9766 1.28125 36 1.14062 36C0.964844 36 0.800781 35.9473 0.648438 35.8418C0.496094 35.7363 0.419922 35.502 0.419922 35.1387C0.419922 34.9629 0.4375 34.7461 0.472656 34.4883C0.507812 34.2188 0.554688 33.9316 0.613281 33.627C0.660156 33.3223 0.71875 33.0117 0.789062 32.6953C0.847656 32.3672 0.90625 32.0625 0.964844 31.7812V23.1855C0.964844 22.9512 0.970703 22.7695 0.982422 22.6406C0.982422 22.5 1 22.3945 1.03516 22.3242C1.10547 22.1602 1.22852 22.0312 1.4043 21.9375C1.58008 21.8438 1.76758 21.7734 1.9668 21.7266C2.16602 21.668 2.35938 21.6328 2.54688 21.6211C2.73438 21.6094 2.88086 21.6035 2.98633 21.6035C3.18555 21.6035 3.32031 21.6562 3.39062 21.7617C3.47266 21.8672 3.51367 22.0547 3.51367 22.3242C3.51367 22.2891 3.48438 22.5762 3.42578 23.1855C3.37891 23.7949 3.33789 24.668 3.30273 25.8047C3.6543 25.2539 4.03516 24.7266 4.44531 24.2227C4.85547 23.7188 5.2832 23.2734 5.72852 22.8867C6.17383 22.5 6.63086 22.1895 7.09961 21.9551C7.58008 21.7207 8.06641 21.6035 8.55859 21.6035C9.4375 21.6035 10.082 21.8848 10.4922 22.4473C10.9023 22.998 11.1074 23.748 11.1074 24.6973C11.1074 25.2949 11.0664 25.9629 10.9844 26.7012C10.9141 27.4277 10.8262 28.1719 10.7207 28.9336C10.627 29.6836 10.5391 30.4219 10.457 31.1484C10.3867 31.8633 10.3516 32.5195 10.3516 33.1172C10.3516 33.8906 10.5918 34.2773 11.0723 34.2773C11.2246 34.2773 11.4004 34.2012 11.5996 34.0488C11.8105 33.8848 12.0684 33.5859 12.373 33.1523C12.6895 32.7188 13.0645 32.127 13.498 31.377C13.9316 30.6152 14.4473 29.6367 15.0449 28.4414L15.2207 28.0723L15.9414 28.6172L15.7656 28.9863C15.0625 30.3926 14.4355 31.5469 13.8848 32.4492C13.3457 33.3516 12.8535 34.0664 12.4082 34.5938C11.9629 35.1211 11.5469 35.4902 11.1602 35.7012C10.7734 35.9004 10.3867 36 10 36C9.75391 36 9.50781 35.9648 9.26172 35.8945C9.01562 35.8242 8.79883 35.7012 8.61133 35.5254C8.42383 35.3496 8.27148 35.1152 8.1543 34.8223C8.03711 34.5176 7.97852 34.1309 7.97852 33.6621C7.97852 32.959 8.02539 32.168 8.11914 31.2891C8.21289 30.4102 8.31836 29.5312 8.43555 28.6523C8.55273 27.7734 8.6582 26.9473 8.75195 26.1738C8.8457 25.3887 8.89258 24.75 8.89258 24.2578C8.89258 23.8242 8.79883 23.4785 8.61133 23.2207C8.42383 22.9512 8.14258 22.8164 7.76758 22.8164ZM19.5238 34.0137C19.934 34.0137 20.35 33.9082 20.7719 33.6973C21.2055 33.4863 21.6391 33.1582 22.0727 32.7129C22.518 32.2676 22.975 31.6934 23.4438 30.9902C23.9125 30.2754 24.393 29.4258 24.8852 28.4414L25.0609 28.0723L25.7816 28.6172L25.6059 28.9863C24.973 30.2402 24.3402 31.3125 23.7074 32.2031C23.0863 33.0938 22.4711 33.8203 21.8617 34.3828C21.2641 34.9453 20.6723 35.3555 20.0863 35.6133C19.5004 35.8711 18.9379 36 18.3988 36C17.6371 36 16.9574 35.8418 16.3598 35.5254C15.7621 35.209 15.2582 34.7812 14.848 34.2422C14.4379 33.6914 14.1273 33.0586 13.9164 32.3438C13.6938 31.6172 13.5824 30.8555 13.5824 30.0586C13.5824 28.793 13.7582 27.6445 14.1098 26.6133C14.4496 25.5703 14.9066 24.6797 15.4809 23.9414C16.0668 23.2031 16.7289 22.6289 17.4672 22.2188C18.2055 21.8086 18.973 21.6035 19.7699 21.6035C20.5785 21.6035 21.1938 21.8086 21.6156 22.2188C22.0492 22.6289 22.266 23.1445 22.266 23.7656C22.266 24.3633 22.0961 24.9258 21.7563 25.4531C21.4164 25.9688 20.9535 26.4785 20.3676 26.9824C19.7934 27.4746 19.1254 27.9668 18.3637 28.459C17.602 28.9395 16.7992 29.4375 15.9555 29.9531C16.0375 30.5625 16.1781 31.1191 16.3773 31.623C16.5766 32.1152 16.8285 32.543 17.1332 32.9062C17.4379 33.2578 17.7895 33.5332 18.1879 33.7324C18.5863 33.9199 19.0316 34.0137 19.5238 34.0137ZM20.0688 24.293C20.0688 23.8242 19.9398 23.4551 19.682 23.1855C19.4359 22.916 19.1313 22.7812 18.768 22.7812C18.4633 22.7812 18.141 22.8926 17.8012 23.1152C17.4613 23.3262 17.1508 23.6719 16.8695 24.1523C16.5883 24.6211 16.3539 25.2246 16.1664 25.9629C15.9789 26.7012 15.8852 27.5977 15.8852 28.6523V29.0566C16.2836 28.8457 16.723 28.5703 17.2035 28.2305C17.6957 27.8789 18.1527 27.4922 18.5746 27.0703C18.9965 26.6484 19.348 26.2031 19.6293 25.7344C19.9223 25.2539 20.0688 24.7734 20.0688 24.293ZM29.3465 34.0137C29.7566 34.0137 30.1727 33.9082 30.5945 33.6973C31.0281 33.4863 31.4617 33.1582 31.8953 32.7129C32.3406 32.2676 32.7977 31.6934 33.2664 30.9902C33.7352 30.2754 34.2156 29.4258 34.7078 28.4414L34.8836 28.0723L35.6043 28.6172L35.4285 28.9863C34.7957 30.2402 34.1629 31.3125 33.5301 32.2031C32.909 33.0938 32.2938 33.8203 31.6844 34.3828C31.0867 34.9453 30.4949 35.3555 29.909 35.6133C29.323 35.8711 28.7605 36 28.2215 36C27.4598 36 26.7801 35.8418 26.1824 35.5254C25.5848 35.209 25.0809 34.7812 24.6707 34.2422C24.2605 33.6914 23.95 33.0586 23.7391 32.3438C23.5164 31.6172 23.4051 30.8555 23.4051 30.0586C23.4051 28.793 23.5809 27.6445 23.9324 26.6133C24.2723 25.5703 24.7293 24.6797 25.3035 23.9414C25.8895 23.2031 26.5516 22.6289 27.2898 22.2188C28.0281 21.8086 28.7957 21.6035 29.5926 21.6035C30.4012 21.6035 31.0164 21.8086 31.4383 22.2188C31.8719 22.6289 32.0887 23.1445 32.0887 23.7656C32.0887 24.3633 31.9188 24.9258 31.5789 25.4531C31.2391 25.9688 30.7762 26.4785 30.1902 26.9824C29.616 27.4746 28.948 27.9668 28.1863 28.459C27.4246 28.9395 26.6219 29.4375 25.7781 29.9531C25.8602 30.5625 26.0008 31.1191 26.2 31.623C26.3992 32.1152 26.6512 32.543 26.9559 32.9062C27.2605 33.2578 27.6121 33.5332 28.0105 33.7324C28.409 33.9199 28.8543 34.0137 29.3465 34.0137ZM29.8914 24.293C29.8914 23.8242 29.7625 23.4551 29.5047 23.1855C29.2586 22.916 28.9539 22.7812 28.5906 22.7812C28.2859 22.7812 27.9637 22.8926 27.6238 23.1152C27.284 23.3262 26.9734 23.6719 26.6922 24.1523C26.4109 24.6211 26.1766 25.2246 25.9891 25.9629C25.8016 26.7012 25.7078 27.5977 25.7078 28.6523V29.0566C26.1063 28.8457 26.5457 28.5703 27.0262 28.2305C27.5184 27.8789 27.9754 27.4922 28.3973 27.0703C28.8191 26.6484 29.1707 26.2031 29.452 25.7344C29.7449 25.2539 29.8914 24.7734 29.8914 24.293ZM37.7629 33.7676C37.9738 33.7676 38.2141 33.6328 38.4836 33.3633C38.7648 33.082 39.0637 32.7012 39.3801 32.2207C39.6965 31.7402 40.0305 31.1777 40.382 30.5332C40.7336 29.8887 41.0969 29.1914 41.4719 28.4414L41.6477 28.0723L42.3684 28.6172L42.1926 28.9863C41.5715 30.2285 41.0148 31.2949 40.5227 32.1855C40.0422 33.0645 39.591 33.791 39.1691 34.3652C38.7473 34.9277 38.343 35.3438 37.9562 35.6133C37.5812 35.8711 37.1945 36 36.7961 36C36.2687 36 35.8117 35.8301 35.425 35.4902C35.05 35.1387 34.7336 34.5586 34.4758 33.75C34.2297 32.9297 34.048 31.8516 33.9309 30.5156C33.802 29.1797 33.7375 27.5273 33.7375 25.5586C33.7375 22.7695 33.8547 20.3789 34.0891 18.3867C34.3234 16.3828 34.6398 14.7422 35.0383 13.4648C35.4484 12.1758 35.9172 11.2324 36.4445 10.6348C36.9836 10.0254 37.5461 9.7207 38.132 9.7207C38.4836 9.7207 38.7766 9.86719 39.0109 10.1602C39.257 10.4414 39.3801 10.957 39.3801 11.707C39.3801 12.293 39.3332 12.9609 39.2395 13.7109C39.1457 14.4609 39.0227 15.2637 38.8703 16.1191C38.718 16.9746 38.5363 17.8652 38.3254 18.791C38.1145 19.7051 37.8918 20.6191 37.6574 21.5332C37.423 22.4355 37.1828 23.3262 36.9367 24.2051C36.6906 25.0723 36.4504 25.8867 36.216 26.6484C36.2863 28.0898 36.3625 29.2734 36.4445 30.1992C36.5383 31.1133 36.6437 31.834 36.7609 32.3613C36.8898 32.8887 37.0363 33.2578 37.2004 33.4688C37.3645 33.668 37.552 33.7676 37.7629 33.7676ZM38.2375 12.1289C38.2375 11.8828 38.2082 11.6895 38.1496 11.5488C38.091 11.4082 37.9973 11.3379 37.8684 11.3379C37.7395 11.3379 37.6105 11.5195 37.4816 11.8828C37.3527 12.2461 37.2238 12.7383 37.0949 13.3594C36.9777 13.9805 36.8664 14.7012 36.7609 15.5215C36.6672 16.3418 36.5793 17.2148 36.4973 18.1406C36.4152 19.0547 36.3508 19.9922 36.3039 20.9531C36.257 21.9141 36.2277 22.8398 36.216 23.7305C36.4973 22.6992 36.7551 21.6445 36.9895 20.5664C37.2355 19.4766 37.4523 18.4219 37.6398 17.4023C37.8273 16.3828 37.9738 15.4219 38.0793 14.5195C38.1848 13.6055 38.2375 12.8086 38.2375 12.1289ZM55.6188 28.6172L55.443 28.9863C54.9508 29.9707 54.482 30.8906 54.0367 31.7461C53.5914 32.6016 53.1461 33.3457 52.7008 33.9785C52.2555 34.6113 51.7984 35.1094 51.3297 35.4727C50.8727 35.8242 50.3805 36 49.8531 36C49.3258 36 48.8102 35.8594 48.3063 35.5781C47.8023 35.2969 47.2984 34.9043 46.7945 34.4004C46.3023 33.8965 45.8043 33.3105 45.3004 32.6426C44.8082 31.9629 44.2984 31.2246 43.7711 30.4277L43.1559 30.5332C43.1324 31.5645 43.0973 32.4961 43.0504 33.3281C43.0035 34.1484 42.9449 34.8223 42.8746 35.3496C42.8395 35.584 42.7398 35.7539 42.5758 35.8594C42.4234 35.9531 42.2125 36 41.943 36C41.6266 36 41.3629 35.959 41.152 35.877C40.941 35.7949 40.777 35.6953 40.6598 35.5781C40.5309 35.4492 40.443 35.3145 40.3961 35.1738C40.3375 35.0215 40.3082 34.875 40.3082 34.7344C40.3082 33.9844 40.4313 33.0527 40.6773 31.9395V22.8516C40.6773 20.6016 40.7945 18.6562 41.0289 17.0156C41.2633 15.3633 41.5797 13.998 41.9781 12.9199C42.3766 11.8301 42.8395 11.0273 43.3668 10.5117C43.9059 9.98438 44.4742 9.7207 45.0719 9.7207C45.7164 9.7207 46.1734 9.93164 46.443 10.3535C46.7242 10.7637 46.8648 11.332 46.8648 12.0586C46.8648 12.6914 46.7711 13.5059 46.5836 14.502C46.3961 15.4863 46.1324 16.5703 45.7926 17.7539C45.4645 18.9375 45.0777 20.1738 44.6324 21.4629C44.1871 22.7402 43.7066 23.9883 43.191 25.207V25.5938C43.5191 25.0664 43.9 24.5625 44.3336 24.082C44.7789 23.6016 45.2535 23.1797 45.7574 22.8164C46.2613 22.4414 46.777 22.1484 47.3043 21.9375C47.8434 21.7148 48.3707 21.6035 48.8863 21.6035C49.3434 21.6035 49.7594 21.668 50.1344 21.7969C50.5211 21.9258 50.8551 22.1133 51.1363 22.3594C51.4176 22.6055 51.6344 22.916 51.7867 23.291C51.9391 23.6543 52.0152 24.0762 52.0152 24.5566C52.0152 25.0488 51.9039 25.541 51.6813 26.0332C51.4703 26.5254 51.1305 27 50.6617 27.457C50.2047 27.9141 49.6129 28.3477 48.8863 28.7578C48.1598 29.1562 47.2809 29.5078 46.2496 29.8125C46.3199 29.918 46.4371 30.0938 46.6012 30.3398C46.7652 30.5859 46.9586 30.8672 47.1813 31.1836C47.4156 31.4883 47.6676 31.8105 47.9371 32.1504C48.2066 32.4785 48.482 32.7832 48.7633 33.0645C49.0563 33.334 49.3434 33.5625 49.6246 33.75C49.9059 33.9258 50.1637 34.0137 50.398 34.0137C50.7145 34.0137 51.0367 33.8848 51.3648 33.627C51.693 33.3574 52.0328 32.9824 52.3844 32.502C52.7477 32.0098 53.1227 31.4238 53.5094 30.7441C53.8961 30.0527 54.3004 29.2852 54.7223 28.4414L54.898 28.0723L55.6188 28.6172ZM43.191 27.1055C43.191 27.375 43.1852 27.6152 43.1734 27.8262C43.1734 28.0254 43.1734 28.2246 43.1734 28.4238C43.1734 28.6113 43.1676 28.8047 43.1559 29.0039C43.1559 29.2031 43.1559 29.4258 43.1559 29.6719C44.3512 29.4961 45.359 29.2617 46.1793 28.9688C47.0113 28.6758 47.6852 28.3359 48.2008 27.9492C48.7164 27.5625 49.0914 27.1406 49.3258 26.6836C49.5602 26.2148 49.6773 25.7227 49.6773 25.207C49.6773 24.9375 49.6305 24.6797 49.5367 24.4336C49.4547 24.1758 49.3316 23.9531 49.1676 23.7656C49.0035 23.5664 48.7984 23.4082 48.5523 23.291C48.318 23.1738 48.0543 23.1152 47.7613 23.1152C47.3512 23.1152 46.9352 23.2266 46.5133 23.4492C46.1031 23.6602 45.693 23.9473 45.2828 24.3105C44.8844 24.6738 44.5035 25.1016 44.1402 25.5938C43.7887 26.0742 43.4723 26.5781 43.191 27.1055ZM44.7379 10.6172C44.4918 10.6172 44.275 10.8574 44.0875 11.3379C43.9117 11.8184 43.7594 12.5684 43.6305 13.5879C43.5016 14.5957 43.3961 15.8848 43.3141 17.4551C43.232 19.0137 43.1676 20.877 43.1207 23.0449C43.6129 21.7441 44.0113 20.5254 44.316 19.3887C44.6207 18.2402 44.8551 17.209 45.0191 16.2949C45.1949 15.3691 45.3121 14.5664 45.3707 13.8867C45.4293 13.1953 45.4586 12.6445 45.4586 12.2344C45.4586 11.6133 45.4 11.1914 45.2828 10.9688C45.1773 10.7344 44.9957 10.6172 44.7379 10.6172Z" fill="#B45309"/>
<path d="M64.8636 29.328C64.7676 30.032 64.7196 30.608 64.7196 31.056C64.7196 31.888 64.9116 32.432 65.2956 32.688C65.7116 32.912 66.5276 33.04 67.7436 33.072L67.8396 33.312L67.0716 36.192C66.5276 36.192 65.5516 36.16 64.1436 36.096C62.7356 36.064 61.4396 36.048 60.2556 36.048C59.1356 36.048 57.9516 36.08 56.7036 36.144C55.4876 36.208 54.7036 36.256 54.3516 36.288L55.1676 33.168C56.5116 33.008 57.4396 32.672 57.9516 32.16C58.4636 31.616 58.7996 30.656 58.9596 29.28L61.2636 10.608C61.2956 10.352 61.3116 10.032 61.3116 9.648C61.3116 9.104 61.2156 8.736 61.0236 8.544C60.8316 8.32 60.5116 8.208 60.0636 8.208C59.7116 8.208 59.3756 8.224 59.0556 8.256C58.7676 8.288 58.5756 8.304 58.4796 8.304L58.2396 7.92L59.0076 5.088C59.4236 5.088 60.2076 5.12 61.3596 5.184C62.5116 5.216 63.6476 5.232 64.7676 5.232C65.5356 5.232 66.6556 5.2 68.1276 5.136C69.6316 5.072 70.6236 5.024 71.1036 4.992C74.3676 4.992 76.9596 5.632 78.8796 6.912C80.8316 8.16 81.8076 9.904 81.8076 12.144C81.8076 14.288 81.1996 16.224 79.9836 17.952C78.7676 19.68 76.9756 21.136 74.6076 22.32L77.8236 29.232C78.5276 30.704 79.2316 31.776 79.9356 32.448C80.6716 33.088 81.5356 33.408 82.5276 33.408L82.7676 33.84L82.1436 36.24L76.6716 36.768C74.6236 36.768 73.1196 35.28 72.1596 32.304L69.1836 23.808H65.6316L64.8636 29.328ZM70.4316 20.16C71.4556 19.808 72.4956 19.104 73.5516 18.048C74.6396 16.96 75.1836 15.376 75.1836 13.296C75.1836 10.224 73.0556 8.688 68.7996 8.688C68.4796 8.688 68.2556 8.768 68.1276 8.928C68.0316 9.056 67.9356 9.344 67.8396 9.792C67.1676 13.248 66.6396 16.544 66.2556 19.68L70.4316 20.16ZM98.7104 17.808C98.7104 19.216 98.3104 20.464 97.5104 21.552C96.7424 22.608 95.5104 23.584 93.8144 24.48C92.1504 25.376 89.8944 26.288 87.0464 27.216C87.0464 28.688 87.3184 29.856 87.8624 30.72C88.4064 31.584 89.1584 32.016 90.1184 32.016C91.0144 32.016 91.8784 31.696 92.7104 31.056C93.5744 30.384 94.3264 29.44 94.9664 28.224L95.8304 28.32L97.3184 30.192C96.4544 32.016 95.1584 33.536 93.4304 34.752C91.7024 35.968 89.9584 36.576 88.1984 36.576C86.1504 36.576 84.5344 35.824 83.3504 34.32C82.1664 32.816 81.5744 30.784 81.5744 28.224C81.5744 25.696 82.1344 23.28 83.2544 20.976C84.4064 18.672 85.9104 16.816 87.7664 15.408C89.6544 14 91.6224 13.296 93.6704 13.296C95.2384 13.296 96.4704 13.696 97.3664 14.496C98.2624 15.296 98.7104 16.4 98.7104 17.808ZM92.0384 17.424C90.9504 17.424 89.9584 18.08 89.0624 19.392C88.1664 20.672 87.5584 22.32 87.2384 24.336C89.4464 23.6 91.0624 22.816 92.0864 21.984C93.1104 21.152 93.6224 20.208 93.6224 19.152C93.6224 18.608 93.4784 18.192 93.1904 17.904C92.9344 17.584 92.5504 17.424 92.0384 17.424ZM126.676 31.008C126.868 31.008 127.204 30.816 127.684 30.432C128.164 30.048 128.9 29.424 129.892 28.56L130.756 28.704L131.476 30.384C129.332 32.624 127.636 34.208 126.388 35.136C125.14 36.064 124.084 36.528 123.22 36.528C121.716 36.528 120.964 35.84 120.964 34.464C120.964 33.92 121.092 33.168 121.348 32.208C121.636 31.248 122.084 29.792 122.692 27.84C123.332 25.856 123.78 24.368 124.036 23.376C124.324 22.384 124.468 21.6 124.468 21.024C124.468 20.512 124.34 20.096 124.084 19.776C123.86 19.456 123.556 19.296 123.172 19.296C122.34 19.296 121.188 20.48 119.716 22.848C118.244 25.184 116.74 28.208 115.204 31.92L114.772 34.656C114.708 35.04 114.132 35.424 113.044 35.808C111.988 36.192 110.948 36.384 109.924 36.384L109.3 35.664C109.652 34.288 110.26 31.68 111.124 27.84C112.02 23.968 112.468 21.648 112.468 20.88C112.468 20.368 112.356 19.984 112.132 19.728C111.908 19.44 111.588 19.296 111.172 19.296C110.404 19.296 109.348 20.4 108.004 22.608C106.692 24.784 105.348 27.632 103.972 31.152L103.54 34.656C103.476 35.04 102.9 35.424 101.812 35.808C100.756 36.192 99.7164 36.384 98.6924 36.384L98.0684 35.664C98.3244 34.128 98.8044 31.184 99.5084 26.832C100.212 22.48 100.596 19.872 100.66 19.008C100.724 18.304 100.612 17.808 100.324 17.52C100.036 17.2 99.5404 17.04 98.8364 17.04H97.1564L97.5884 14.256C99.0604 14.256 100.788 14.208 102.772 14.112C104.756 13.984 106.052 13.904 106.66 13.872L107.236 14.64C107.14 14.896 106.948 15.504 106.66 16.464C106.404 17.392 106.1 18.56 105.748 19.968C105.396 21.376 105.108 22.768 104.884 24.144L105.124 24.192C107.908 18.336 110.516 14.704 112.948 13.296C114.484 13.296 115.732 13.744 116.692 14.64C117.652 15.504 118.132 16.624 118.132 18C118.132 18.608 117.94 19.664 117.556 21.168C117.172 22.64 116.9 23.632 116.74 24.144L116.98 24.192C118.292 21.44 119.636 19.12 121.012 17.232C122.388 15.344 123.716 14.032 124.996 13.296C126.564 13.296 127.812 13.744 128.74 14.64C129.668 15.504 130.132 16.64 130.132 18.048C130.132 18.784 129.94 19.808 129.556 21.12C129.204 22.4 128.708 23.968 128.068 25.824C127.3 28.064 126.788 29.744 126.532 30.864L126.676 31.008ZM147.446 31.104C147.67 31.104 147.99 30.944 148.406 30.624C148.822 30.304 149.574 29.648 150.662 28.656L151.478 28.752L152.246 30.432C149.91 32.864 148.166 34.496 147.014 35.328C145.862 36.16 144.822 36.576 143.894 36.576C143.254 36.576 142.758 36.416 142.406 36.096C142.086 35.808 141.926 35.392 141.926 34.848C141.926 34.208 142.486 31.472 143.606 26.64L143.222 26.592C141.782 29.152 140.438 31.232 139.19 32.832C137.974 34.4 136.726 35.648 135.446 36.576C133.75 36.576 132.422 35.968 131.462 34.752C130.534 33.536 130.07 31.84 130.07 29.664C130.07 27.104 130.63 24.592 131.75 22.128C132.902 19.632 134.358 17.6 136.118 16.032C137.91 14.464 139.734 13.68 141.59 13.68L145.766 14.496L146.15 13.44L146.678 13.152L150.374 13.776L150.758 14.592C150.054 17.28 149.382 20.128 148.742 23.136C148.134 26.144 147.654 28.736 147.302 30.912L147.446 31.104ZM136.982 31.104C137.43 31.104 138.086 30.528 138.95 29.376C139.814 28.192 140.726 26.656 141.686 24.768C142.678 22.848 143.574 20.848 144.374 18.768C143.702 18.352 142.982 18.016 142.214 17.76C141.446 17.504 140.774 17.376 140.198 17.376C139.494 17.376 138.806 17.84 138.134 18.768C137.462 19.696 136.918 20.912 136.502 22.416C136.086 23.888 135.878 25.408 135.878 26.976C135.878 28.16 135.974 29.152 136.166 29.952C136.39 30.72 136.662 31.104 136.982 31.104ZM156.816 31.104C157.008 31.104 157.344 30.912 157.824 30.528C158.304 30.144 159.04 29.52 160.032 28.656L160.848 28.752L161.616 30.432C159.536 32.64 157.856 34.224 156.576 35.184C155.328 36.112 154.256 36.576 153.36 36.576C151.888 36.576 151.152 35.84 151.152 34.368C151.152 33.92 151.792 29.696 153.072 21.696C154.704 11.776 155.52 6.4 155.52 5.568C155.52 4.96 155.376 4.512 155.088 4.224C154.8 3.936 154.336 3.792 153.696 3.792H152.016L152.448 1.056C153.92 1.056 155.648 1.008 157.632 0.912C159.648 0.783999 160.96 0.687999 161.568 0.623998L162.144 1.392C161.92 2.384 161.456 4.624 160.752 8.112C160.048 11.568 159.28 15.488 158.448 19.872C157.648 24.256 157.04 27.936 156.624 30.912L156.816 31.104ZM166.3 31.104C166.492 31.104 166.828 30.912 167.308 30.528C167.788 30.144 168.524 29.52 169.516 28.656L170.332 28.752L171.1 30.432C169.02 32.64 167.34 34.224 166.06 35.184C164.812 36.112 163.74 36.576 162.844 36.576C161.372 36.576 160.636 35.84 160.636 34.368C160.636 33.92 161.276 29.696 162.556 21.696C164.188 11.776 165.004 6.4 165.004 5.568C165.004 4.96 164.86 4.512 164.572 4.224C164.284 3.936 163.82 3.792 163.18 3.792H161.5L161.932 1.056C163.404 1.056 165.132 1.008 167.116 0.912C169.132 0.783999 170.444 0.687999 171.052 0.623998L171.628 1.392C171.404 2.384 170.94 4.624 170.236 8.112C169.532 11.568 168.764 15.488 167.932 19.872C167.132 24.256 166.524 27.936 166.108 30.912L166.3 31.104ZM176.359 31.104C176.551 31.104 176.823 30.976 177.175 30.72C177.527 30.464 178.327 29.776 179.575 28.656L180.391 28.752L181.159 30.432C179.111 32.64 177.447 34.224 176.167 35.184C174.919 36.112 173.847 36.576 172.951 36.576C172.183 36.576 171.623 36.384 171.271 36C170.919 35.616 170.743 35.024 170.743 34.224C172.279 24.912 173.047 19.792 173.047 18.864C173.047 18.224 172.903 17.76 172.615 17.472C172.327 17.184 171.863 17.04 171.223 17.04H169.543L169.975 14.256C171.959 14.256 174.999 14.128 179.095 13.872L179.671 14.592C178.999 16.864 178.343 19.552 177.703 22.656C177.063 25.728 176.567 28.48 176.215 30.912L176.359 31.104ZM176.407 9.456C175.479 9.456 174.759 9.2 174.247 8.688C173.767 8.144 173.527 7.424 173.527 6.528C173.527 5.312 173.927 4.304 174.727 3.504C175.527 2.672 176.519 2.256 177.703 2.256C178.631 2.256 179.351 2.528 179.863 3.072C180.375 3.616 180.631 4.32 180.631 5.184C180.631 6.4 180.231 7.424 179.431 8.256C178.631 9.056 177.623 9.456 176.407 9.456Z" fill="#111827"/>
</svg>
