<svg width="77" height="28" viewBox="0 0 77 28" fill="none" xmlns="http://www.w3.org/2000/svg">
<path d="M3.84164 14.4643C3.70386 14.4643 3.54886 14.5259 3.37664 14.6489C3.20934 14.7719 3.03958 14.9318 2.86736 15.1286C2.69514 15.3205 2.52784 15.537 2.36546 15.7781C2.208 16.0193 2.07023 16.2579 1.95213 16.4941C1.93737 16.9271 1.92261 17.3995 1.90785 17.9112C1.89801 18.423 1.89309 18.9691 1.89309 19.5498C1.89309 19.6236 1.85864 19.69 1.78975 19.7491C1.72579 19.8032 1.64952 19.8499 1.56095 19.8893C1.47238 19.9237 1.38134 19.9508 1.28785 19.9705C1.19436 19.9902 1.11809 20 1.05905 20C0.985238 20 0.91635 19.9779 0.852383 19.9336C0.788415 19.8893 0.756431 19.7909 0.756431 19.6383C0.756431 19.5645 0.763812 19.4735 0.778574 19.3652C0.793336 19.2521 0.813018 19.1315 0.837621 19.0036C0.857303 18.8756 0.881906 18.7453 0.91143 18.6124C0.936032 18.4746 0.960635 18.3467 0.985238 18.2286V14.6193C0.985238 14.5209 0.987699 14.4447 0.992619 14.3905C0.992619 14.3315 1 14.2872 1.01476 14.2577C1.04429 14.1888 1.09595 14.1347 1.16976 14.0953C1.24357 14.0559 1.3223 14.0264 1.40595 14.0067C1.4896 13.9821 1.57079 13.9674 1.64952 13.9624C1.72825 13.9575 1.78975 13.9551 1.83404 13.9551C1.91769 13.9551 1.97427 13.9772 2.0038 14.0215C2.03824 14.0658 2.05546 14.1445 2.05546 14.2577C2.05546 14.2429 2.04316 14.3635 2.01856 14.6193C1.99888 14.8752 1.98166 15.2418 1.96689 15.7191C2.11451 15.4878 2.27443 15.2664 2.44665 15.0548C2.61887 14.8432 2.79847 14.6562 2.98545 14.4939C3.17244 14.3315 3.36434 14.2011 3.56116 14.1027C3.76291 14.0043 3.96711 13.9551 4.17377 13.9551C4.54282 13.9551 4.81345 14.0732 4.98567 14.3093C5.15789 14.5406 5.244 14.8555 5.244 15.2541C5.244 15.5051 5.22678 15.7855 5.19233 16.0955C5.16281 16.4006 5.12591 16.7131 5.08162 17.0329C5.04226 17.3478 5.00535 17.6578 4.97091 17.9629C4.94138 18.263 4.92662 18.5386 4.92662 18.7895C4.92662 19.1143 5.02749 19.2767 5.22924 19.2767C5.29321 19.2767 5.36701 19.2447 5.45066 19.1807C5.53924 19.1118 5.64749 18.9864 5.77542 18.8043C5.90828 18.6222 6.06574 18.3737 6.2478 18.0588C6.42986 17.739 6.64637 17.3281 6.89732 16.8262L6.97112 16.6712L7.27374 16.9L7.19993 17.055C6.9047 17.6455 6.64145 18.1302 6.41018 18.5091C6.18383 18.8879 5.97717 19.1881 5.79018 19.4095C5.6032 19.631 5.42852 19.786 5.26614 19.8745C5.10376 19.9582 4.94138 20 4.77901 20C4.67567 20 4.57234 19.9852 4.46901 19.9557C4.36568 19.9262 4.27465 19.8745 4.19592 19.8007C4.11719 19.7269 4.05322 19.6285 4.00401 19.5055C3.95481 19.3775 3.93021 19.2152 3.93021 19.0183C3.93021 18.7231 3.94989 18.391 3.98925 18.0219C4.02862 17.6529 4.0729 17.2838 4.12211 16.9148C4.17131 16.5458 4.2156 16.1989 4.25496 15.8741C4.29433 15.5444 4.31401 15.2762 4.31401 15.0696C4.31401 14.8875 4.27465 14.7424 4.19592 14.6341C4.11719 14.5209 3.99909 14.4643 3.84164 14.4643ZM8.77796 19.166C8.95018 19.166 9.12486 19.1217 9.302 19.0331C9.48406 18.9445 9.66613 18.8068 9.84819 18.6198C10.0352 18.4328 10.2271 18.1917 10.4239 17.8965C10.6207 17.5963 10.8225 17.2396 11.0291 16.8262L11.1029 16.6712L11.4056 16.9L11.3317 17.055C11.066 17.5815 10.8003 18.0318 10.5346 18.4057C10.2738 18.7797 10.0155 19.0848 9.75962 19.321C9.50867 19.5571 9.26018 19.7294 9.01415 19.8376C8.76812 19.9459 8.53193 20 8.30559 20C7.98575 20 7.70035 19.9336 7.4494 19.8007C7.19845 19.6679 6.98687 19.4883 6.81465 19.2619C6.64243 19.0306 6.51203 18.7649 6.42346 18.4648C6.32997 18.1597 6.28323 17.8399 6.28323 17.5053C6.28323 16.9738 6.35704 16.4916 6.50465 16.0586C6.64735 15.6207 6.83925 15.2467 7.08036 14.9367C7.32639 14.6267 7.6044 14.3856 7.9144 14.2134C8.2244 14.0412 8.54669 13.9551 8.88129 13.9551C9.22081 13.9551 9.47914 14.0412 9.65628 14.2134C9.83835 14.3856 9.92938 14.6021 9.92938 14.8629C9.92938 15.1139 9.85803 15.3501 9.71533 15.5715C9.57263 15.788 9.37827 16.002 9.13224 16.2136C8.89113 16.4203 8.61066 16.6269 8.29082 16.8336C7.97099 17.0354 7.63393 17.2445 7.27964 17.461C7.31409 17.7169 7.37314 17.9506 7.45678 18.1622C7.54043 18.3688 7.64623 18.5484 7.77416 18.701C7.9021 18.8486 8.04971 18.9642 8.21701 19.0479C8.38431 19.1266 8.5713 19.166 8.77796 19.166ZM9.00677 15.0843C9.00677 14.8875 8.95264 14.7325 8.84439 14.6193C8.74106 14.5062 8.61312 14.4496 8.46058 14.4496C8.33265 14.4496 8.19733 14.4963 8.05464 14.5898C7.91194 14.6784 7.78154 14.8235 7.66345 15.0253C7.54536 15.2221 7.44694 15.4755 7.36821 15.7855C7.28949 16.0955 7.25012 16.4719 7.25012 16.9148V17.0846C7.41742 16.996 7.60194 16.8804 7.80369 16.7377C8.01035 16.59 8.20225 16.4277 8.37939 16.2505C8.55653 16.0734 8.70415 15.8864 8.82225 15.6896C8.94526 15.4878 9.00677 15.2861 9.00677 15.0843ZM12.9024 19.166C13.0746 19.166 13.2493 19.1217 13.4264 19.0331C13.6085 18.9445 13.7906 18.8068 13.9726 18.6198C14.1596 18.4328 14.3515 18.1917 14.5483 17.8965C14.7451 17.5963 14.9469 17.2396 15.1536 16.8262L15.2274 16.6712L15.53 16.9L15.4562 17.055C15.1905 17.5815 14.9247 18.0318 14.659 18.4057C14.3982 18.7797 14.1399 19.0848 13.884 19.321C13.6331 19.5571 13.3846 19.7294 13.1386 19.8376C12.8926 19.9459 12.6564 20 12.43 20C12.1102 20 11.8248 19.9336 11.5738 19.8007C11.3229 19.6679 11.1113 19.4883 10.9391 19.2619C10.7669 19.0306 10.6365 18.7649 10.5479 18.4648C10.4544 18.1597 10.4077 17.8399 10.4077 17.5053C10.4077 16.9738 10.4815 16.4916 10.6291 16.0586C10.7718 15.6207 10.9637 15.2467 11.2048 14.9367C11.4508 14.6267 11.7288 14.3856 12.0388 14.2134C12.3488 14.0412 12.6711 13.9551 13.0057 13.9551C13.3452 13.9551 13.6036 14.0412 13.7807 14.2134C13.9628 14.3856 14.0538 14.6021 14.0538 14.8629C14.0538 15.1139 13.9825 15.3501 13.8398 15.5715C13.6971 15.788 13.5027 16.002 13.2567 16.2136C13.0156 16.4203 12.7351 16.6269 12.4153 16.8336C12.0954 17.0354 11.7584 17.2445 11.4041 17.461C11.4385 17.7169 11.4976 17.9506 11.5812 18.1622C11.6649 18.3688 11.7707 18.5484 11.8986 18.701C12.0265 18.8486 12.1741 18.9642 12.3414 19.0479C12.5087 19.1266 12.6957 19.166 12.9024 19.166ZM13.1312 15.0843C13.1312 14.8875 13.0771 14.7325 12.9688 14.6193C12.8655 14.5062 12.7376 14.4496 12.585 14.4496C12.4571 14.4496 12.3218 14.4963 12.1791 14.5898C12.0364 14.6784 11.906 14.8235 11.7879 15.0253C11.6698 15.2221 11.5714 15.4755 11.4926 15.7855C11.4139 16.0955 11.3746 16.4719 11.3746 16.9148V17.0846C11.5419 16.996 11.7264 16.8804 11.9281 16.7377C12.1348 16.59 12.3267 16.4277 12.5038 16.2505C12.681 16.0734 12.8286 15.8864 12.9467 15.6896C13.0697 15.4878 13.1312 15.2861 13.1312 15.0843ZM16.4364 19.0626C16.5249 19.0626 16.6258 19.006 16.739 18.8929C16.8571 18.7748 16.9825 18.6149 17.1154 18.4131C17.2482 18.2114 17.3885 17.9752 17.5361 17.7045C17.6837 17.4339 17.8363 17.1411 17.9937 16.8262L18.0675 16.6712L18.3701 16.9L18.2963 17.055C18.0355 17.5766 17.8018 18.0244 17.5951 18.3984C17.3934 18.7674 17.204 19.0725 17.0268 19.3136C16.8497 19.5498 16.6799 19.7244 16.5175 19.8376C16.3601 19.9459 16.1977 20 16.0304 20C15.809 20 15.6171 19.9287 15.4547 19.786C15.2972 19.6383 15.1644 19.3948 15.0561 19.0552C14.9528 18.7108 14.8765 18.2581 14.8273 17.6972C14.7732 17.1362 14.7461 16.4424 14.7461 15.6158C14.7461 14.4447 14.7953 13.4409 14.8937 12.6044C14.9922 11.7629 15.125 11.0741 15.2923 10.5377C15.4645 9.99646 15.6614 9.60035 15.8828 9.3494C16.1091 9.09353 16.3453 8.9656 16.5913 8.9656C16.739 8.9656 16.862 9.02711 16.9604 9.15012C17.0637 9.26821 17.1154 9.48472 17.1154 9.79964C17.1154 10.0457 17.0957 10.3261 17.0563 10.6411C17.017 10.956 16.9653 11.293 16.9013 11.6522C16.8374 12.0114 16.7611 12.3854 16.6725 12.7741C16.584 13.1579 16.4905 13.5417 16.3921 13.9255C16.2937 14.3044 16.1928 14.6784 16.0895 15.0474C15.9861 15.4116 15.8852 15.7535 15.7868 16.0734C15.8164 16.6786 15.8483 17.1756 15.8828 17.5643C15.9222 17.9481 15.9664 18.2507 16.0156 18.4722C16.0698 18.6936 16.1313 18.8486 16.2002 18.9372C16.2691 19.0208 16.3478 19.0626 16.4364 19.0626ZM16.6356 9.97678C16.6356 9.87345 16.6233 9.79226 16.5987 9.73321C16.5741 9.67416 16.5348 9.64464 16.4806 9.64464C16.4265 9.64464 16.3724 9.72091 16.3183 9.87345C16.2641 10.026 16.21 10.2326 16.1559 10.4934C16.1067 10.7542 16.0599 11.0568 16.0156 11.4013C15.9763 11.7457 15.9394 12.1123 15.9049 12.501C15.8705 12.8848 15.8434 13.2785 15.8237 13.682C15.8041 14.0855 15.7918 14.4742 15.7868 14.8482C15.9049 14.4151 16.0132 13.9723 16.1116 13.5196C16.2149 13.062 16.306 12.6191 16.3847 12.191C16.4634 11.7629 16.5249 11.3595 16.5692 10.9806C16.6135 10.5968 16.6356 10.2622 16.6356 9.97678ZM23.9338 16.9L23.86 17.055C23.6534 17.4684 23.4565 17.8546 23.2696 18.2138C23.0826 18.573 22.8956 18.8855 22.7086 19.1512C22.5216 19.4169 22.3297 19.626 22.1329 19.7786C21.941 19.9262 21.7343 20 21.5129 20C21.2915 20 21.075 19.941 20.8634 19.8229C20.6518 19.7048 20.4402 19.5399 20.2286 19.3283C20.022 19.1168 19.8129 18.8707 19.6013 18.5903C19.3946 18.3049 19.1806 17.9949 18.9591 17.6603L18.7008 17.7045C18.691 18.1376 18.6762 18.5287 18.6565 18.8781C18.6368 19.2225 18.6122 19.5055 18.5827 19.7269C18.5679 19.8253 18.5261 19.8967 18.4572 19.941C18.3933 19.9803 18.3047 20 18.1915 20C18.0587 20 17.948 19.9828 17.8594 19.9483C17.7708 19.9139 17.7019 19.8721 17.6527 19.8229C17.5986 19.7687 17.5617 19.7121 17.542 19.6531C17.5174 19.5891 17.5051 19.5276 17.5051 19.4686C17.5051 19.1537 17.5568 18.7625 17.6601 18.295V14.4791C17.6601 13.5344 17.7093 12.7175 17.8077 12.0287C17.9061 11.3349 18.039 10.7616 18.2063 10.3089C18.3736 9.8513 18.5679 9.51424 18.7894 9.29774C19.0157 9.07631 19.2544 8.9656 19.5053 8.9656C19.7759 8.9656 19.9679 9.05417 20.081 9.23131C20.1991 9.40353 20.2582 9.64218 20.2582 9.94725C20.2582 10.213 20.2188 10.5549 20.1401 10.9732C20.0613 11.3865 19.9506 11.8417 19.8079 12.3387C19.6702 12.8356 19.5078 13.3548 19.3208 13.896C19.1338 14.4324 18.9321 14.9564 18.7156 15.4681V15.6305C18.8533 15.4091 19.0133 15.1975 19.1953 14.9958C19.3823 14.794 19.5816 14.6169 19.7932 14.4643C20.0048 14.3069 20.2213 14.1839 20.4427 14.0953C20.669 14.0018 20.8905 13.9551 21.107 13.9551C21.2989 13.9551 21.4735 13.9821 21.631 14.0363C21.7934 14.0904 21.9336 14.1691 22.0517 14.2724C22.1698 14.3758 22.2608 14.5062 22.3248 14.6636C22.3888 14.8162 22.4208 14.9933 22.4208 15.1951C22.4208 15.4017 22.374 15.6084 22.2805 15.815C22.192 16.0217 22.0493 16.221 21.8524 16.4129C21.6605 16.6048 21.412 16.7869 21.107 16.9591C20.8019 17.1264 20.4328 17.274 19.9998 17.4019C20.0294 17.4462 20.0786 17.52 20.1475 17.6234C20.2163 17.7267 20.2975 17.8448 20.391 17.9776C20.4894 18.1056 20.5952 18.2409 20.7084 18.3836C20.8216 18.5214 20.9372 18.6493 21.0553 18.7674C21.1783 18.8806 21.2989 18.9765 21.417 19.0552C21.5351 19.1291 21.6433 19.166 21.7417 19.166C21.8746 19.166 22.0099 19.1118 22.1477 19.0036C22.2854 18.8904 22.4281 18.733 22.5758 18.5312C22.7283 18.3245 22.8858 18.0785 23.0481 17.7931C23.2105 17.5028 23.3803 17.1805 23.5574 16.8262L23.6312 16.6712L23.9338 16.9ZM18.7156 16.2653C18.7156 16.3785 18.7131 16.4793 18.7082 16.5679C18.7082 16.6515 18.7082 16.7352 18.7082 16.8188C18.7082 16.8976 18.7057 16.9788 18.7008 17.0624C18.7008 17.1461 18.7008 17.2396 18.7008 17.3429C19.2027 17.2691 19.6259 17.1707 19.9703 17.0477C20.3197 16.9246 20.6026 16.7819 20.8191 16.6196C21.0356 16.4572 21.1931 16.28 21.2915 16.0881C21.3899 15.8913 21.4391 15.6847 21.4391 15.4681C21.4391 15.355 21.4194 15.2467 21.3801 15.1434C21.3456 15.0351 21.2939 14.9416 21.2251 14.8629C21.1562 14.7793 21.0701 14.7128 20.9667 14.6636C20.8683 14.6144 20.7576 14.5898 20.6346 14.5898C20.4624 14.5898 20.2877 14.6366 20.1105 14.7301C19.9383 14.8186 19.7661 14.9392 19.5939 15.0917C19.4266 15.2443 19.2667 15.4239 19.1141 15.6305C18.9665 15.8323 18.8337 16.0439 18.7156 16.2653ZM19.3651 9.34202C19.2617 9.34202 19.1707 9.4429 19.092 9.64464C19.0182 9.84638 18.9542 10.1613 18.9001 10.5894C18.846 11.0126 18.8017 11.5538 18.7672 12.2132C18.7328 12.8676 18.7057 13.65 18.686 14.5603C18.8927 14.0141 19.06 13.5024 19.1879 13.0251C19.3159 12.5429 19.4143 12.1098 19.4832 11.726C19.557 11.3373 19.6062 11.0003 19.6308 10.7149C19.6554 10.4246 19.6677 10.1933 19.6677 10.0211C19.6677 9.76027 19.6431 9.58313 19.5939 9.48964C19.5496 9.39123 19.4733 9.34202 19.3651 9.34202Z" fill="#B45309"/>
<path d="M27.8157 17.1985C27.7754 17.4941 27.7552 17.736 27.7552 17.9241C27.7552 18.2734 27.8358 18.5018 27.9971 18.6093C28.1717 18.7034 28.5144 18.7571 29.0249 18.7706L29.0653 18.8713L28.7428 20.0806C28.5144 20.0806 28.1045 20.0672 27.5133 20.0403C26.9221 20.0269 26.378 20.0202 25.8808 20.0202C25.4105 20.0202 24.9134 20.0336 24.3894 20.0605C23.8788 20.0873 23.5496 20.1075 23.4018 20.1209L23.7444 18.8109C24.3087 18.7437 24.6984 18.6026 24.9134 18.3876C25.1284 18.1592 25.2695 17.7561 25.3366 17.1783L26.3041 9.33817C26.3175 9.23067 26.3242 9.09631 26.3242 8.93507C26.3242 8.70665 26.2839 8.55213 26.2033 8.47151C26.1227 8.37746 25.9883 8.33043 25.8002 8.33043C25.6524 8.33043 25.5113 8.33715 25.3769 8.35059C25.256 8.36402 25.1754 8.37074 25.1351 8.37074L25.0343 8.2095L25.3568 7.02038C25.5315 7.02038 25.8607 7.03381 26.3444 7.06069C26.8281 7.07412 27.3051 7.08084 27.7754 7.08084C28.0978 7.08084 28.5681 7.0674 29.1862 7.04053C29.8177 7.01366 30.2342 6.9935 30.4358 6.98007C31.8063 6.98007 32.8946 7.2488 33.7008 7.78625C34.5205 8.31028 34.9303 9.04256 34.9303 9.98312C34.9303 10.8834 34.675 11.6963 34.1644 12.4218C33.6538 13.1474 32.9014 13.7588 31.9071 14.2559L33.2574 17.1582C33.553 17.7763 33.8486 18.2264 34.1442 18.5086C34.4533 18.7773 34.8161 18.9116 35.2326 18.9116L35.3334 19.093L35.0714 20.1008L32.7737 20.3225C31.9138 20.3225 31.2823 19.6977 30.8792 18.4481L29.6296 14.8807H28.1381L27.8157 17.1985ZM30.1536 13.349C30.5836 13.2011 31.0203 12.9055 31.4637 12.4621C31.9205 12.0053 32.1489 11.3402 32.1489 10.4668C32.1489 9.17693 31.2554 8.53198 29.4684 8.53198C29.334 8.53198 29.2399 8.56557 29.1862 8.63275C29.1459 8.6865 29.1056 8.80743 29.0653 8.99554C28.7831 10.4467 28.5614 11.8306 28.4002 13.1474L30.1536 13.349ZM42.0276 12.3614C42.0276 12.9526 41.8596 13.4766 41.5237 13.9334C41.2012 14.3768 40.6839 14.7867 39.9718 15.1629C39.2731 15.5391 38.3258 15.922 37.13 16.3117C37.13 16.9298 37.2442 17.4202 37.4726 17.783C37.701 18.1458 38.0168 18.3272 38.4199 18.3272C38.7961 18.3272 39.1589 18.1928 39.5082 17.9241C39.871 17.6419 40.1868 17.2455 40.4555 16.7349L40.8183 16.7752L41.4431 17.5613C41.0803 18.3272 40.5361 18.9654 39.8105 19.476C39.085 19.9866 38.3527 20.2419 37.6137 20.2419C36.7537 20.2419 36.0752 19.9261 35.5781 19.2946C35.0809 18.6631 34.8323 17.8099 34.8323 16.7349C34.8323 15.6735 35.0675 14.659 35.5377 13.6916C36.0215 12.7242 36.653 11.9448 37.4323 11.3536C38.225 10.7624 39.0514 10.4668 39.9113 10.4668C40.5697 10.4668 41.087 10.6348 41.4632 10.9707C41.8394 11.3066 42.0276 11.7702 42.0276 12.3614ZM39.2261 12.2001C38.7692 12.2001 38.3527 12.4756 37.9765 13.0265C37.6002 13.5639 37.345 14.2559 37.2106 15.1024C38.1377 14.7934 38.8162 14.4642 39.2462 14.1148C39.6762 13.7655 39.8912 13.3691 39.8912 12.9257C39.8912 12.6973 39.8307 12.5226 39.7098 12.4017C39.6023 12.2673 39.441 12.2001 39.2261 12.2001ZM53.7702 17.9039C53.8508 17.9039 53.9919 17.8233 54.1934 17.6621C54.395 17.5008 54.704 17.2388 55.1206 16.876L55.4833 16.9365L55.7857 17.6419C54.8854 18.5825 54.1733 19.2476 53.6493 19.6372C53.1252 20.0269 52.6818 20.2217 52.3191 20.2217C51.6875 20.2217 51.3718 19.9328 51.3718 19.355C51.3718 19.1266 51.4255 18.8109 51.533 18.4078C51.6539 18.0047 51.8421 17.3933 52.0974 16.5737C52.3661 15.7406 52.5542 15.1158 52.6617 14.6993C52.7826 14.2828 52.8431 13.9536 52.8431 13.7117C52.8431 13.4968 52.7893 13.3221 52.6818 13.1877C52.5878 13.0533 52.4601 12.9862 52.2989 12.9862C51.9495 12.9862 51.4658 13.4833 50.8478 14.4776C50.2297 15.4585 49.5982 16.7282 48.9532 18.2869L48.7718 19.4357C48.745 19.5969 48.5031 19.7581 48.0463 19.9194C47.6029 20.0806 47.1662 20.1612 46.7362 20.1612L46.4742 19.8589C46.622 19.2811 46.8773 18.1861 47.2401 16.5737C47.6163 14.9479 47.8044 13.9737 47.8044 13.6513C47.8044 13.4363 47.7574 13.275 47.6633 13.1676C47.5693 13.0466 47.4349 12.9862 47.2602 12.9862C46.9377 12.9862 46.4943 13.4497 45.93 14.3768C45.3791 15.2905 44.8148 16.4864 44.237 17.9644L44.0556 19.4357C44.0288 19.5969 43.7869 19.7581 43.3301 19.9194C42.8867 20.0806 42.45 20.1612 42.02 20.1612L41.758 19.8589C41.8655 19.214 42.067 17.9778 42.3626 16.1505C42.6582 14.3231 42.8195 13.228 42.8463 12.8652C42.8732 12.5696 42.8262 12.3614 42.7053 12.2404C42.5843 12.1061 42.3761 12.0389 42.0805 12.0389H41.3751L41.5564 10.8699C42.1745 10.8699 42.9001 10.8498 43.7332 10.8095C44.5662 10.7557 45.1104 10.7221 45.3657 10.7087L45.6075 11.0312C45.5672 11.1387 45.4866 11.3939 45.3657 11.797C45.2582 12.1867 45.1305 12.6771 44.9827 13.2683C44.8349 13.8595 44.714 14.444 44.62 15.0218L44.7207 15.0419C45.8897 12.5831 46.9848 11.058 48.0059 10.4668C48.6509 10.4668 49.1749 10.6549 49.578 11.0312C49.9811 11.3939 50.1827 11.8642 50.1827 12.442C50.1827 12.6973 50.102 13.1407 49.9408 13.7722C49.7796 14.3903 49.6654 14.8068 49.5982 15.0218L49.6989 15.0419C50.2498 13.8864 50.8142 12.9123 51.3919 12.1195C51.9697 11.3268 52.5273 10.7759 53.0648 10.4668C53.7232 10.4668 54.2472 10.6549 54.6368 11.0312C55.0265 11.3939 55.2213 11.8709 55.2213 12.4621C55.2213 12.7712 55.1407 13.2011 54.9795 13.752C54.8317 14.2895 54.6234 14.9479 54.3547 15.7272C54.0322 16.6678 53.8172 17.3732 53.7097 17.8434L53.7702 17.9039ZM62.491 17.9442C62.5851 17.9442 62.7195 17.877 62.8941 17.7427C63.0688 17.6083 63.3846 17.3329 63.8414 16.9163L64.184 16.9566L64.5065 17.6621C63.5256 18.6832 62.7934 19.3685 62.3096 19.7178C61.8259 20.0672 61.3892 20.2419 60.9996 20.2419C60.7309 20.2419 60.5226 20.1747 60.3748 20.0403C60.2404 19.9194 60.1732 19.7447 60.1732 19.5163C60.1732 19.2476 60.4084 18.0987 60.8787 16.0698L60.7174 16.0497C60.1128 17.1246 59.5484 17.998 59.0244 18.6698C58.5138 19.3282 57.9898 19.8522 57.4524 20.2419C56.7402 20.2419 56.1826 19.9866 55.7795 19.476C55.3899 18.9654 55.195 18.2533 55.195 17.3396C55.195 16.2647 55.4302 15.2099 55.9004 14.1753C56.3842 13.1272 56.9955 12.274 57.7345 11.6156C58.487 10.9573 59.2528 10.6281 60.0322 10.6281L61.7856 10.9707L61.9469 10.5273L62.1686 10.4064L63.7205 10.6684L63.8817 11.011C63.5861 12.1397 63.3039 13.3355 63.0352 14.5985C62.7799 15.8616 62.5784 16.9499 62.4306 17.8636L62.491 17.9442ZM58.0973 17.9442C58.2854 17.9442 58.5609 17.7024 58.9237 17.2187C59.2864 16.7215 59.6694 16.0766 60.0725 15.2838C60.489 14.4776 60.8652 13.6378 61.2011 12.7645C60.919 12.5898 60.6166 12.4487 60.2942 12.3412C59.9717 12.2337 59.6895 12.18 59.4477 12.18C59.1521 12.18 58.8632 12.3748 58.581 12.7645C58.2989 13.1541 58.0704 13.6647 57.8958 14.2962C57.7211 14.9143 57.6338 15.5525 57.6338 16.2109C57.6338 16.7081 57.6741 17.1246 57.7547 17.4605C57.8487 17.783 57.9629 17.9442 58.0973 17.9442ZM66.4255 17.9442C66.5061 17.9442 66.6472 17.8636 66.8487 17.7024C67.0502 17.5411 67.3593 17.2791 67.7758 16.9163L68.1184 16.9566L68.4409 17.6621C67.5676 18.5892 66.8621 19.2543 66.3247 19.6574C65.8007 20.047 65.3505 20.2419 64.9743 20.2419C64.3562 20.2419 64.0472 19.9328 64.0472 19.3147C64.0472 19.1266 64.3159 17.353 64.8534 13.9939C65.5386 9.8286 65.8813 7.57127 65.8813 7.22192C65.8813 6.96663 65.8208 6.77852 65.6999 6.65759C65.579 6.53666 65.3841 6.4762 65.1154 6.4762H64.41L64.5914 5.32738C65.2095 5.32738 65.935 5.30723 66.7681 5.26692C67.6146 5.21317 68.1655 5.17286 68.4208 5.14599L68.6626 5.46846C68.5686 5.88499 68.3737 6.82555 68.0781 8.29012C67.7825 9.74126 67.4601 11.3872 67.1107 13.228C66.7748 15.0688 66.5195 16.614 66.3448 17.8636L66.4255 17.9442ZM70.4076 17.9442C70.4882 17.9442 70.6293 17.8636 70.8308 17.7024C71.0324 17.5411 71.3414 17.2791 71.7579 16.9163L72.1006 16.9566L72.423 17.6621C71.5497 18.5892 70.8443 19.2543 70.3068 19.6574C69.7828 20.047 69.3327 20.2419 68.9564 20.2419C68.3384 20.2419 68.0293 19.9328 68.0293 19.3147C68.0293 19.1266 68.2981 17.353 68.8355 13.9939C69.5208 9.8286 69.8634 7.57127 69.8634 7.22192C69.8634 6.96663 69.8029 6.77852 69.682 6.65759C69.5611 6.53666 69.3663 6.4762 69.0975 6.4762H68.3921L68.5735 5.32738C69.1916 5.32738 69.9171 5.30723 70.7502 5.26692C71.5967 5.21317 72.1476 5.17286 72.4029 5.14599L72.6448 5.46846C72.5507 5.88499 72.3559 6.82555 72.0603 8.29012C71.7647 9.74126 71.4422 11.3872 71.0928 13.228C70.7569 15.0688 70.5016 16.614 70.327 17.8636L70.4076 17.9442ZM74.6316 17.9442C74.7122 17.9442 74.8264 17.8905 74.9742 17.783C75.122 17.6755 75.4579 17.3866 75.9819 16.9163L76.3246 16.9566L76.647 17.6621C75.7871 18.5892 75.0884 19.2543 74.5509 19.6574C74.0269 20.047 73.5768 20.2419 73.2006 20.2419C72.8781 20.2419 72.643 20.1612 72.4952 20C72.3474 19.8388 72.2735 19.5902 72.2735 19.2543C72.9184 15.3443 73.2409 13.1944 73.2409 12.8048C73.2409 12.536 73.1804 12.3412 73.0595 12.2203C72.9386 12.0994 72.7437 12.0389 72.475 12.0389H71.7696L71.951 10.8699C72.784 10.8699 74.0605 10.8162 75.7804 10.7087L76.0222 11.011C75.7401 11.965 75.4646 13.0937 75.1959 14.397C74.9272 15.6869 74.7189 16.8424 74.5711 17.8636L74.6316 17.9442ZM74.6517 8.85445C74.2621 8.85445 73.9597 8.74696 73.7448 8.53198C73.5432 8.30356 73.4424 8.00124 73.4424 7.62502C73.4424 7.11443 73.6104 6.69118 73.9463 6.35527C74.2822 6.00592 74.6987 5.83125 75.1959 5.83125C75.5855 5.83125 75.8879 5.94546 76.1029 6.17388C76.3178 6.4023 76.4253 6.6979 76.4253 7.06069C76.4253 7.57127 76.2574 8.00124 75.9215 8.35059C75.5855 8.6865 75.1623 8.85445 74.6517 8.85445Z" fill="#111827"/>
</svg>
